# xmcd
#
# Track frame offsets: 
#        150
#        9818
#        19908
#        30098
#        39830
#        51220
#        65163
#        81935
#        91305
#        113295
#
# Disc length: 1655 seconds
#
# Revision: 0
# Processed by: cddbd v1.5.2PL0 Copyright (c) Steve Scherf et al.
# Submitted via: ExactAudioCopy v0.95b3
#
DISCID=6506750a
DTITLE=The Beatles  - Way Beyond Compare - Episode 13 Please Please Me
DTITLE=Sessions 3 (11 February)  FLAC
DYEAR=1900
DGENRE=
TTITLE0=Do You Want To Know A Secret - take 8 (mono)
TTITLE1=A Taste Of Honey - take 6 (mono)
TTITLE2=A Taste Of Honey - take 7 (mono)
TTITLE3=There's A Place - take 11 (mono)
TTITLE4=There's A Place - takes 12 and 13 (mono)
TTITLE5=I Saw Her Standing There - take 10 (mono)
TTITLE6=I Saw Her Standing There - takes 11 and 12 (mono)
TTITLE7=Misery - take 1 (mono)
TTITLE8=Misery - takes 2-6 (mono)
TTITLE9=Misery - takes 7 and 8 (mono)
EXTD=
EXTT0=
EXTT1=
EXTT2=
EXTT3=
EXTT4=
EXTT5=
EXTT6=
EXTT7=
EXTT8=
EXTT9=
PLAYORDER=
